# Blender v2.79 (sub 0) OBJ File: 'anvil.blend'
# www.blender.org
mtllib anvil.mtl
o anvil_Mesh1_Model
v 0.349366 0.172026 0.110160
v 0.280000 0.144299 0.156643
v 0.280000 0.127149 0.008111
v 0.280000 0.241679 0.199096
v -0.278383 0.241679 0.199096
v -0.165922 0.144299 0.156643
v 0.280000 0.310000 0.199096
v -0.278383 0.310000 0.199096
v 0.349366 0.249097 0.135043
v 0.349366 0.287242 0.135043
v 0.437673 0.210893 0.065107
v 0.349366 0.154876 0.006042
v 0.349366 0.172026 -0.107773
v 0.437673 0.210893 -0.077435
v 0.437673 0.254449 -0.097023
v 0.559400 0.282035 -0.054926
v 0.559340 0.295098 -0.045371
v 0.629367 0.320438 0.004422
v 0.437673 0.280359 -0.071321
v 0.349366 0.249097 -0.132656
v 0.280000 0.144299 -0.154257
v 0.289528 0.062080 0.010093
v 0.289528 0.062080 0.201193
v -0.210472 0.062080 0.201193
v -0.165922 0.144299 -0.154257
v -0.210472 0.062080 -0.198807
v -0.278383 0.241679 -0.196710
v -0.278383 0.310000 -0.196710
v 0.280000 0.310000 0.010000
v 0.280000 0.310000 -0.196710
v 0.349366 0.310000 0.007150
v 0.437673 0.280359 0.071483
v 0.437673 0.254449 0.098157
v 0.558732 0.284566 0.052482
v 0.558805 0.273898 0.040772
v 0.629367 0.306940 0.004910
v 0.558783 0.295303 0.044330
v 0.437673 0.310000 0.004910
v 0.559364 0.273940 -0.049042
v 0.437673 0.196569 0.004319
v 0.629367 0.284267 0.003985
v 0.349366 0.287242 -0.132656
v 0.280000 0.241679 -0.196710
v 0.289528 0.062080 -0.198807
v 0.289528 -0.006549 0.201193
v 0.289528 -0.006549 -0.198807
v -0.210472 -0.006549 0.201193
v -0.210472 -0.006549 -0.198807
vt 0.180039 0.313810
vt 0.158901 0.341335
vt 0.104539 0.314019
vt 0.129412 0.269032
vt 0.233816 0.383505
vt 0.227072 0.390963
vt 0.165633 0.067752
vt 0.148249 0.132901
vt -0.194190 0.041523
vt -0.107837 -0.005221
vt 0.271711 -0.062442
vt 0.271711 -0.019077
vt -0.082710 -0.019077
vt -0.082710 -0.062442
vt 0.138825 0.063930
vt 0.198754 0.068638
vt 0.198754 0.092850
vt 0.138825 0.107295
vt 0.085847 -0.033189
vt 0.188944 -0.022670
vt 0.156659 0.022898
vt 0.084120 0.014213
vt -0.190767 0.205824
vt -0.192696 0.199772
vt -0.117395 0.152633
vt -0.110576 0.182170
vt -0.072311 0.066648
vt -0.080051 0.088482
vt -0.159092 0.079816
vt -0.155848 0.070068
vt 0.016279 0.051153
vt 0.033344 0.116386
vt -0.026675 0.119754
vt -0.036535 0.069303
vt 0.188810 0.238084
vt 0.214627 0.294447
vt -0.008418 -0.022188
vt -0.036810 -0.074663
vt 0.084487 -0.074928
vt -0.281773 0.085392
vt -0.278915 0.093457
vt 0.153918 0.364406
vt -0.262800 0.075164
vt -0.261697 0.085378
vt -0.305399 0.121756
vt -0.258599 0.148460
vt -0.341596 0.145355
vt -0.357799 0.102031
vt -0.011806 0.068638
vt 0.218308 0.086302
vt 0.208242 0.136712
vt 0.090700 0.013996
vt 0.024337 0.023043
vt 0.217081 -0.075218
vt 0.539055 -0.050066
vt 0.533007 0.009289
vt 0.249968 0.009289
vt 0.221691 -0.050066
vt 0.193414 0.009289
vt -0.003923 0.009289
vt -0.032200 -0.050066
vt -0.248566 -0.203751
vt -0.150548 -0.197880
vt -0.126075 -0.019077
vt -0.082710 0.232152
vt -0.126075 0.232152
vt 0.271711 0.100948
vt 0.271711 0.232152
vt 0.318049 0.021580
vt 0.315671 0.103998
vt -0.277357 0.076359
vt -0.226886 0.083220
vt -0.227238 0.097619
vt 0.259498 0.072036
vt 0.267941 0.094077
vt -0.171144 0.076662
vt -0.086689 0.127697
vt -0.093840 0.098239
vt 0.279015 0.406989
vt -0.150591 0.111725
vt -0.182576 0.163007
vt -0.183647 0.116764
vt -0.127578 0.116764
vt -0.123547 0.199118
vt -0.186498 0.070928
vt -0.131034 0.030924
vt -0.226552 0.106165
vt -0.011806 0.092850
vt 0.048123 0.107295
vt 0.048123 0.063930
vt 0.318049 0.191496
vt -0.083326 0.120756
vt -0.127391 0.120756
vt -0.011328 0.342946
vt -0.082710 0.275518
vt 0.271711 0.275518
vt 0.271712 0.342946
vt 0.227580 -0.091178
vt 0.199303 -0.031822
vt -0.083736 -0.031822
vt -0.089783 -0.091178
vt -0.036905 -0.118223
vt 0.216986 -0.118778
vt 0.539055 -0.093627
vt 0.221691 -0.093627
vt -0.032200 -0.093627
vt 0.227580 -0.134738
vt -0.089783 -0.134738
vt 0.221691 -0.347518
vt 0.539055 -0.347518
vt 0.264323 0.276959
vt 0.257473 0.213129
vt -0.184874 0.064864
vn 0.5254 -0.7237 0.4475
vn 0.5448 0.0791 0.8348
vn 0.5821 -0.0945 0.8076
vn 0.5391 -0.6959 0.4745
vn 0.4711 -0.4183 0.7766
vn 0.3327 0.2425 0.9113
vn 0.0000 -0.3996 0.9167
vn 0.0000 0.0000 1.0000
vn 0.6603 -0.1841 0.7281
vn 0.6363 0.0090 0.7714
vn 0.6784 0.0000 0.7347
vn 0.4115 -0.9114 0.0052
vn 0.6158 -0.5386 -0.5750
vn 0.5037 -0.6894 -0.5206
vn 0.4120 -0.9111 0.0113
vn 0.5029 0.1869 -0.8439
vn 0.4880 -0.6263 -0.6079
vn 0.4758 -0.6846 -0.5523
vn 0.3387 0.1414 -0.9302
vn 0.2461 0.5954 -0.7648
vn 0.2954 0.6195 -0.7273
vn 0.6667 -0.1401 -0.7321
vn 0.6491 -0.1088 -0.7529
vn 0.4536 -0.8908 0.0251
vn 0.9908 0.1350 -0.0113
vn 0.9920 0.1263 -0.0064
vn 0.9927 0.1209 -0.0002
vn 0.9920 0.1265 -0.0002
vn 0.2126 0.4310 0.8769
vn 0.2459 0.6503 0.7188
vn 0.4688 -0.4265 -0.7735
vn 0.0389 0.9296 0.3664
vn -0.3761 0.7880 0.4874
vn -0.0136 0.9123 0.4092
vn 0.0746 0.9530 0.2937
vn 0.5913 -0.6569 0.4677
vn 0.9919 0.1266 0.0059
vn 0.9906 0.1362 0.0107
vn 0.0000 0.4764 0.8792
vn -0.8792 0.4764 0.0000
vn -0.6546 -0.7560 -0.0000
vn -1.0000 0.0000 0.0000
vn -0.0000 1.0000 0.0000
vn 0.1620 0.9828 0.0890
vn 0.3117 0.9502 0.0000
vn 0.1175 0.9855 0.1223
vn 0.0801 0.9664 0.2441
vn 0.6063 -0.7772 0.1683
vn 0.5265 0.0477 0.8488
vn 0.6655 -0.2457 -0.7048
vn -0.0023 0.9590 -0.2836
vn 0.0645 0.9921 -0.1078
vn 0.0671 0.9737 -0.2177
vn 0.1006 0.9265 -0.3625
vn 0.1974 0.0099 0.9803
vn 0.7127 -0.0956 -0.6949
vn 0.6784 0.0000 -0.7347
vn 0.1551 0.9845 -0.0817
vn 0.0000 -0.3996 -0.9167
vn 0.0000 0.0000 -1.0000
vn 0.0000 0.4764 -0.8792
vn 1.0000 0.0000 0.0000
vn 0.0000 -1.0000 -0.0000
vn -0.3668 0.7991 -0.4763
vn -0.0998 0.9168 -0.3867
usemtl gray
s 1
f 11/1/1 33/2/2 9/3/3 1/4/4
f 33/2/2 11/1/1 35/5/5 34/6/6
f 2/7/7 4/8/7 5/9/7 6/10/7
f 4/11/8 7/12/8 8/13/8 5/14/8
f 4/15/9 9/16/3 10/17/10 7/18/11
f 3/19/12 21/20/13 13/21/14 12/22/15
f 16/23/16 39/24/17 14/25/18 15/26/19
f 15/27/19 19/28/20 17/29/21 16/30/16
f 21/31/13 43/32/22 20/33/23 13/34/14
f 12/35/15 40/36/24 11/1/1 1/4/4
f 2/37/25 23/38/26 22/39/27 3/19/28
f 34/40/6 37/41/29 32/42/30 33/2/2
f 16/43/16 17/44/21 18/45/31
f 37/46/32 18/45/33 38/47/34 32/48/35
f 19/28/20 15/27/19 20/49/23
f 1/50/4 9/51/3 4/8/9 2/7/36
f 3/19/12 12/52/15 1/53/4 2/37/36
f 22/39/27 44/54/37 21/20/38 3/19/28
f 23/55/39 2/56/39 6/57/39 24/58/39
f 24/58/40 6/59/40 25/60/40 26/61/40
f 6/10/41 5/9/41 27/62/41 25/63/41
f 5/64/42 8/13/42 28/65/42 27/66/42
f 7/12/43 29/67/43 30/68/43 28/65/43 8/13/43
f 29/67/44 7/12/45 10/69/46
f 10/69/46 31/70/47 29/67/44
f 35/71/5 41/72/48 36/73/49 34/40/6
f 33/74/2 32/75/30 10/17/10
f 39/76/17 16/43/16 18/45/31 36/73/50
f 13/34/14 20/33/23 15/77/19 14/78/18
f 39/24/17 41/79/48 11/1/1 40/80/24
f 32/81/35 38/82/34 31/83/47 10/84/46
f 19/85/51 42/86/52 31/83/53 38/82/54
f 40/80/24 14/25/18 39/24/17
f 36/73/49 18/87/55 37/41/29 34/40/6
f 36/73/50 41/72/48 39/76/17
f 41/79/48 35/5/5 11/1/1
f 10/17/10 9/16/3 33/74/2
f 20/49/23 42/88/56 19/28/20
f 30/89/57 42/88/56 20/49/23 43/90/22
f 42/91/52 30/68/45 29/67/58
f 29/92/58 31/93/53 42/86/52
f 25/94/59 27/95/59 43/96/59 21/97/59
f 27/95/60 28/65/60 30/68/60 43/96/60
f 26/98/61 25/99/61 21/100/61 44/101/61
f 44/54/62 22/39/62 23/38/62 45/102/62 46/103/62
f 45/104/8 23/55/8 24/58/8 47/105/8
f 47/105/42 24/58/42 26/61/42 48/106/42
f 48/107/60 26/98/60 44/101/60 46/108/60
f 45/104/63 47/105/63 48/109/63 46/110/63
f 14/111/18 40/36/24 12/35/15 13/112/14
f 19/113/51 38/82/54 18/45/64 17/44/65
